<?xml version="1.0" encoding="utf-8"?>
<!-- Generator: Adobe Illustrator 24.1.1, SVG Export Plug-In . SVG Version: 6.00 Build 0)  -->
<svg version="1.1" id="Layer_1" xmlns="http://www.w3.org/2000/svg" xmlns:xlink="http://www.w3.org/1999/xlink" x="0px" y="0px"
	 viewBox="0 0 595.28 558.86" style="enable-background:new 0 0 595.28 558.86;" xml:space="preserve">
<style type="text/css">
	.st0{fill:#DD963C;}
</style>
<g>
	<path class="st0" d="M443.17,256.39c-5.98,3.82-11.56,8.14-17.74,11.21c-36.1,17.95-70.44,13.62-101.87-10.99
		c-27-21.14-40.66-50.39-42.94-84.93c-2.24-33.9,7.43-63.98,30.66-88.6c32.89-34.85,84.02-39.39,122.67-11.07
		c27.59,20.22,42.39,48.34,46.62,82.54c1.94,15.7,0.57,31.2-3.57,46.44c-0.15,0.55-0.24,1.12-0.18,0.83
		c33.52,26.6,66.74,52.83,99.81,79.26c10.85,8.67,13.56,24.68,6.64,37.02c-2.26,4.03-4.81,7.94-7.57,11.63
		c-8.63,11.55-23.56,13.6-34.82,4.72c-30.91-24.4-61.75-48.88-92.6-73.37C446.42,259.61,444.76,257.86,443.17,256.39z
		 M312.25,161.84c0.24,21.93,6.43,40.08,19.17,55.7c28.76,35.27,79.22,33.73,104.14-3.09c22.52-33.28,16.83-81.15-12.82-107.92
		c-23.77-21.46-56.77-23.77-81.05-5.26C321.5,116.67,312.92,138.13,312.25,161.84z M67.98,27.15c0,88.82,0,177.42,0,266.17
		c104.13,0,208.07,0,312.09,0c0-2.11,0-3.93,0-5.65c-0.37-0.21-0.56-0.38-0.76-0.41c-0.67-0.1-1.35-0.17-2.03-0.21
		c-20.49-1.5-38.92-8.72-55.62-20.91c-1.51-1.1-3.77-1.54-5.69-1.54c-72.54-0.08-145.08-0.06-217.62-0.07c-1.22,0-2.44,0-4.08,0
		c0-1.8,0-3.17,0-4.53c0-66.39,0-132.79,0-199.18c0-4.65,0.01-4.66,4.65-4.66c76.86-0.01,153.73,0,230.59-0.08
		c2.07,0,4.29-0.53,6.18-1.4c8.65-3.99,17.53-7.19,26.95-8.51c5.7-0.8,11.45-1.22,17.34-1.83c0-5.67,0-11.31,0-17.19
		C275.92,27.15,172.06,27.15,67.98,27.15z M41.11,361.3c0-10.71-0.88-20.96,0.26-30.97c1.05-9.29,4.18-18.35,6.62-27.44
		c0.2-0.76,2.11-1.46,3.23-1.47c12.16-0.11,24.33-0.08,36.49-0.08c103.79,0,207.57,0.04,311.36-0.08c3.59,0,4.91,1.15,5.65,4.56
		c1.6,7.39,3.62,14.69,5.38,22.05c0.35,1.45,0.44,2.99,0.45,4.5c0.04,8.05,0.02,16.1,0.02,24.15c0,4.78-0.01,4.78-4.53,4.78
		c-51.15,0.01-102.31,0.02-153.46,0.02c-68.89,0-137.78-0.01-206.66-0.02C44.45,361.3,42.99,361.3,41.11,361.3z M284.62,348.34
		c0-4.12-0.25-7.86,0.07-11.56c0.32-3.7-1.12-4.41-4.44-4.4c-36.6,0.11-73.2,0.07-109.79,0.07c-1.33,0-2.66,0-4.22,0
		c0,5.52,0,10.58,0,15.89C205.62,348.34,244.88,348.34,284.62,348.34z M181.83,133.28c5.73,5.46,11.2,10.54,16.5,15.8
		c1.71,1.7,2.77,2.07,4.69,0.19c8.63-8.45,17.42-16.74,26.16-25.09c6.22-5.94,12.45-11.88,18.83-17.98
		c3.09,2.86,5.95,5.51,9.48,8.79c0-9.04,0.07-16.95-0.12-24.85c-0.02-0.71-1.7-1.95-2.64-1.99c-5.56-0.2-11.14-0.12-16.71-0.13
		c-2.53-0.01-5.06,0-7.58,0c-0.08,0.3-0.15,0.59-0.23,0.89c2.73,2.69,5.47,5.38,8.36,8.22c-12.76,12.15-25.22,24.01-37.79,35.98
		c-6.5-6.15-12.64-11.97-18.98-17.98c-19.02,18.18-37.76,36.11-56.73,54.25c3.25,3.13,6.2,5.98,9.44,9.09
		C150.49,163.21,166.1,148.31,181.83,133.28z M238.91,232.69c5.28,0,10.27-0.16,15.25,0.06c2.81,0.13,3.42-0.97,3.4-3.62
		c-0.11-11.43-0.04-22.85-0.04-34.28c0.01-19.36,0.02-38.71,0-58.07c0-1.64,0.57-3.67-2.26-3.63c-5.33,0.08-10.66,0.02-16.34,0.02
		C238.91,166.59,238.91,199.5,238.91,232.69z M200.87,161.62c-0.02,22.85-0.02,45.71-0.09,68.56c-0.01,2.09,0.9,2.55,2.69,2.52
		c4.2-0.07,8.42-0.21,12.61,0.07c3.16,0.21,3.74-1.05,3.72-4.01c-0.11-21.57-0.04-43.15-0.04-64.72c0-1.13-0.1-2.25-0.15-3.5
		c-6.34,0-12.32,0-18.4,0C201,161.19,200.87,161.41,200.87,161.62z M163.31,232.65c5.33,0,10.32-0.13,15.29,0.05
		c2.57,0.09,3.32-0.81,3.28-3.4c-0.14-8.15-0.05-16.31-0.05-24.47c0-10.72,0.02-21.44-0.02-32.16c0-1.38,0.57-3.28-1.85-3.29
		c-5.53-0.01-11.06,0-16.66,0C163.31,190.67,163.31,211.52,163.31,232.65z M125.16,230.86c0.01,0.6,1.44,1.67,2.23,1.7
		c4.77,0.15,9.54,0.16,14.31-0.04c0.79-0.03,2.18-1.34,2.19-2.06c0.14-13.64,0.14-27.28,0.05-40.92c0-0.7-1.02-1.99-1.59-2
		c-5.65-0.15-11.3-0.09-17.28-0.09C125.06,202.23,125.04,216.55,125.16,230.86z"/>
	<g>
		<g>
			<path class="st0" d="M44.79,478.93l-10.52,50.56H7.09l24.72-119.83h32.44c21.04,0,28.58,11.52,24.37,31.49l-1.75,8.28
				c-2.45,11.7-7.71,17.63-14.38,19.79c6.66,4.14,7.89,10.62,4.03,28.07c-3.16,14.21-5.96,27.53-6.31,32.21H43.74
				c-0.88-2.16,0.53-10.62,6.14-37.79c2.45-11.88,0.88-12.77-3.68-12.77H44.79z M49.17,458.6h2.1c5.26,0,6.66-1.98,8.24-9.54
				l1.93-10.08c1.4-7.02,0.35-9-4.91-9h-1.58L49.17,458.6z"/>
			<path class="st0" d="M115.27,487.57l-2.98,15.83c-1.05,5.22,0.53,6.84,2.63,6.84c3.16,0,4.38-1.8,5.61-7.38l1.4-6.66h26.3
				l-0.7,4.5c-3.68,18.89-11.75,30.41-35.07,30.41c-25.42,0-30.33-14.39-25.77-36.71l6.31-30.77c4.38-20.87,13.33-32.57,35.77-32.57
				c25.42,0,30.16,13.67,25.77,35.27l-4.38,21.23H115.27z M127.2,469.75l1.58-7.74c1.58-7.38,1.93-10.8-1.93-10.8
				c-3.51,0-4.38,2.16-6.14,11.34l-1.4,7.2H127.2z"/>
			<path class="st0" d="M179.09,498.36l-1.23,5.94c-1.05,5.04-0.18,7.38,2.46,7.38c2.1,0,3.86-1.44,4.73-5.76
				c1.05-5.22,1.23-9.72-7.36-16.91c-14.03-11.7-17.36-19.43-14.55-33.83c2.81-14.57,11.05-24.11,30.16-24.11
				c26.13,0,27.88,16.73,25.42,28.79l-0.7,3.42H194l1.05-4.86c1.23-5.76,1.23-8.64-1.93-8.64c-2.28,0-3.33,1.62-4.03,4.68
				c-1.23,5.4-0.35,8.1,5.61,13.13c16.48,13.85,20.34,21.41,17.36,37.79c-2.63,14.03-9.82,25.73-32.79,25.73
				c-26.48,0-27.88-16.37-25.25-30.05l0.53-2.7H179.09z"/>
			<path class="st0" d="M250.28,487.57l-2.98,15.83c-1.05,5.22,0.53,6.84,2.63,6.84c3.16,0,4.38-1.8,5.61-7.38l1.4-6.66h26.3
				l-0.7,4.5c-3.68,18.89-11.75,30.41-35.07,30.41c-25.42,0-30.33-14.39-25.77-36.71l6.31-30.77c4.38-20.87,13.33-32.57,35.77-32.57
				c25.42,0,30.16,13.67,25.77,35.27l-4.38,21.23H250.28z M262.2,469.75l1.58-7.74c1.58-7.38,1.93-10.8-1.93-10.8
				c-3.51,0-4.38,2.16-6.14,11.34l-1.4,7.2H262.2z"/>
			<path class="st0" d="M351.27,503.22c-1.23,5.4-4.38,22.67-4.91,26.27h-26.48c0.17-2.16,0.53-4.5,0.88-7.02
				c-5.44,6.66-11.05,8.64-17.53,8.64c-12.8,0-18.41-10.98-14.03-32.21c4.38-20.87,14.2-28.43,38.05-30.77
				c1.4-0.18,3.33-0.36,4.21-0.36l1.93-9.54c1.23-6.12,0.35-7.74-2.46-7.74c-2.63,0-4.03,1.44-5.26,7.02l-1.05,4.68h-25.25l0.7-3.42
				c4.38-21.23,13.85-27.71,32.79-27.71c19.46,0,32.09,6.3,27,30.77L351.27,503.22z M327.6,486.31c-0.53,0-1.4,0.18-2.1,0.36
				c-5.08,1.08-7.36,3.24-9.12,12.42c-1.23,6.66,0,9.18,2.8,9.18c3.33,0,4.56-2.88,5.26-5.94L327.6,486.31z"/>
			<path class="st0" d="M369.15,465.61c3.51-17.27,5.61-28.07,6.49-33.11h26.3c-0.35,3.06-1.05,8.46-1.93,12.6
				c4.73-10.26,12.62-13.86,21.04-14.04l-6.84,33.11c-16.66-1.08-19.11,7.56-21.22,17.81l-9.82,47.5H356L369.15,465.61z"/>
			<path class="st0" d="M474.18,492.06l-1.4,7.2c-3.51,17.81-6.84,31.85-34.02,31.85c-24.02,0-29.11-12.77-24.02-37.25l5.96-30.05
				c4.03-20.15,11.22-32.75,34.19-32.75c25.6,0,29.28,15.11,25.6,32.75l-1.05,5.04h-25.42l1.93-9.54c1.05-5.4,0.88-7.56-1.93-7.56
				c-3.16,0-4.03,2.7-5.08,7.2l-8.94,44.08c-0.88,4.14-0.53,7.02,2.28,7.02c2.98,0,3.68-1.8,5.26-9.18l1.75-8.82H474.18z"/>
			<path class="st0" d="M528.36,404.26l-7.19,34.73c4.56-4.86,10.17-7.92,17.71-7.92c14.55,0,17.53,10.26,14.55,24.47l-15.25,73.95
				h-27.35l14.03-68.55c0.88-3.96,0.53-7.02-2.63-7.02c-2.81,0-4.56,1.8-5.61,7.2l-14.03,68.37h-27.18l25.77-125.23H528.36z"/>
		</g>
	</g>
</g>
</svg>
