<?xml version="1.0" encoding="utf-8"?>
<!-- Generator: Adobe Illustrator 24.1.1, SVG Export Plug-In . SVG Version: 6.00 Build 0)  -->
<svg version="1.1" id="Layer_1" xmlns="http://www.w3.org/2000/svg" xmlns:xlink="http://www.w3.org/1999/xlink" x="0px" y="0px"
	 viewBox="0 0 595.28 558.86" style="enable-background:new 0 0 595.28 558.86;" xml:space="preserve">
<style type="text/css">
	.st0{fill:#DD963C;}
</style>
<g>
	<path class="st0" d="M524.34,239.02c-11.1,15.25-21.56,31.02-33.44,45.64c-23.49,28.89-51,53.2-84.79,69.69
		c-20.93,10.21-42.89,16.45-66.35,16.47c-4.56,0-9.11-0.64-13.67-0.99c-12.76-0.98-20.22-9.01-26.15-19.33
		c-11.61-20.19-16.44-42.18-17.28-65.16c-1.47-40.1,8.78-77.74,25.55-113.67c7.71-16.52,17.18-32.22,25.77-48.33
		c1.28-2.41,2.9-3.2,5.62-3.09c19.89,0.85,38.65,6.34,56.75,14.1c40.45,17.35,76.78,40.9,106.36,73.8
		c8.19,9.11,14.47,19.94,21.63,29.99C524.34,238.42,524.34,238.72,524.34,239.02z M402.63,307.71
		c-18.35-0.08-36.12-0.84-51.89-10.35c-15.84-9.55-23.64-25.41-30.69-42.07c-9.13,19.22,0.92,45.36,21.74,58.36
		C364.37,327.75,391.17,321.29,402.63,307.71z M414.76,233.64c-3.5-1.01-5.2,1.31-4.98,4.43c0.28,4.15,0.6,8.71,2.48,12.27
		c7.17,13.57,19.01,21.41,33.73,24.89c6.77,1.6,13.51,1.28,19.38-3.23c1.88-1.45,2.95-2.91,1.45-5.56
		C455.37,246.32,438.27,235.24,414.76,233.64z M374.45,226.31c2.94-1.24,7.23-2.87,11.35-4.87c1.92-0.93,2.29-2.64,1.06-4.79
		c-11.6-20.34-28.95-31.55-52.34-33.45c-3.04-0.25-4.85,1.05-4.8,3.68c0.08,4.03-0.09,8.58,1.65,11.97
		C339.96,215.5,354.46,223.6,374.45,226.31z"/>
	<path class="st0" d="M341.79,105.11c-5.49,0-10.06-0.2-14.6,0.12c-1.44,0.1-3.32,1.23-4.09,2.46
		c-24.54,38.92-44.15,79.93-52.45,125.63c-3.26,17.94-4.17,36-2.79,54.19c0.11,1.43-0.24,3.41-1.17,4.33
		c-14.28,14.13-30.17,25.88-49.28,32.83c-7.98,2.9-15.59,1.93-23.24-1.1c-18.31-7.24-33.63-18.83-47.33-32.69
		c-25.8-26.12-42.84-57.51-54.69-91.93C79.46,162.15,73.53,124.11,71.8,85.34c-0.36-8.1-0.43-16.22-0.85-24.32
		c-0.14-2.74,0.84-4.23,3.17-5.58c19.23-11.19,40.19-17.5,61.81-21.79c34.52-6.85,69.41-8.02,104.39-5.23
		c32.05,2.56,63.35,8.65,92.57,22.9c10.72,5.23,10.94,5.18,10.61,16.84C343.16,80.36,342.39,92.55,341.79,105.11z M147.18,206.73
		c3.17,26.34,31.05,47.47,60.5,47.08c29.47-0.39,57-21.74,59.27-46.95C227.06,236.66,187.23,240.92,147.18,206.73z M150.44,113.07
		c-14.67,0.02-27.17,4-39.11,10.24c-2.6,1.36-3.17,3.01-2.4,5.68c1.52,5.25,4.96,8.97,9.26,12.01c7.18,5.07,15.38,7.41,23.99,8.22
		c13.7,1.3,27.01-0.26,38.34-8.68c3.79-2.81,6.29-7.53,8.9-11.68c1.22-1.94,0.49-4.03-2.06-5.39
		C175.46,117.15,162.95,113.19,150.44,113.07z M264.61,149.66c11.74-0.2,22.83-2.04,31.95-9.26c3.71-2.94,6.15-7.61,8.75-11.76
		c1.14-1.82,0.45-3.74-1.9-5.03c-25.57-13.98-51.08-14.01-76.65-0.04c-2.19,1.2-2.81,2.51-2.14,4.95c1.63,5.93,5.5,9.99,10.44,13.17
		C244.16,147.56,254.34,149.43,264.61,149.66z"/>
</g>
<g>
	<g>
		<path class="st0" d="M167.18,496.4l-5.38,21.83h-23.87l30.56-96.92h36.09l-10.48,96.92h-22.7l2.91-21.83H167.18z M177.51,478.07
			c1.16-7.42,4.22-32.16,4.95-37.4h-1.02c-1.02,4.22-6.99,27.94-9.46,37.4H177.51z"/>
		<path class="st0" d="M254.78,487.96l-1.16,5.82c-2.91,14.41-5.68,25.76-28.23,25.76c-19.94,0-24.16-10.33-19.94-30.12l4.95-24.3
			c3.35-16.3,9.31-26.49,28.38-26.49c21.25,0,24.3,12.22,21.25,26.49l-0.87,4.08h-21.1l1.6-7.71c0.87-4.37,0.73-6.11-1.6-6.11
			c-2.62,0-3.35,2.18-4.22,5.82l-7.42,35.65c-0.73,3.35-0.44,5.67,1.89,5.67c2.47,0,3.06-1.46,4.37-7.42l1.46-7.13H254.78z"/>
		<path class="st0" d="M268.46,439.8h7.42l3.49-16.15h22.27l-3.49,16.15h7.71l-3.93,18.48h-7.71l-8.15,36.82
			c-0.73,3.49,0.29,4.66,4.07,4.66c0.44,0,2.33,0,3.2-0.15l-3.78,17.9c-4.51,1.31-9.75,1.46-12.22,1.46
			c-13.82,0-17.9-5.82-15.13-18.92l9.17-41.76h-6.84L268.46,439.8z"/>
		<path class="st0" d="M312.56,439.8h22.56l-16.59,78.44h-22.56L312.56,439.8z M317.36,416.95h22.56l-3.78,18.04h-22.56
			L317.36,416.95z"/>
		<path class="st0" d="M338.9,461.92c2.18-10.48,4.07-20.23,4.37-22.12h21.97c-0.15,1.31-0.58,4.66-0.87,6.11
			c2.76-3.2,7.13-7.28,15.13-7.28c11.64,0,14.7,8,12.22,19.36l-12.66,60.25h-22.7L368,462.79c0.58-2.47,0.87-5.68-1.89-5.68
			c-2.62,0-4.07,1.89-5.09,6.55l-11.5,54.57h-22.56L338.9,461.92z"/>
		<path class="st0" d="M440.03,512.12c-4.07,19.5-6.55,31.29-30.85,31.29c-22.99,0-25.03-11.21-22.85-21.83l0.15-0.73h22.56
			l-0.15,0.87c-0.44,2.91-0.15,5.09,2.18,5.09c2.62,0,3.49-0.87,4.8-6.55l2.62-11.79c-3.78,5.24-8.88,7.28-14.26,7.28
			c-13.39,0-14.7-11.06-11.79-24.59l6.4-30.12c2.62-12.08,7.86-22.41,20.08-22.41c6.4,0,11.06,2.47,12.66,7.86
			c0.58-2.33,2.04-5.82,2.47-6.69h21.54c-1.75,7.13-3.2,14.41-5.68,25.9L440.03,512.12z M420.97,462.79L415,491.31
			c-0.87,4.22,0.29,5.68,2.47,5.68s3.64-1.6,4.51-5.82l5.97-28.67c0.44-2.33,0.44-5.38-2.33-5.38
			C423.15,457.11,421.84,458.71,420.97,462.79z"/>
	</g>
</g>
</svg>
