<?xml version="1.0" encoding="utf-8"?>
<!-- Generator: Adobe Illustrator 24.1.1, SVG Export Plug-In . SVG Version: 6.00 Build 0)  -->
<svg version="1.1" id="Layer_1" xmlns="http://www.w3.org/2000/svg" xmlns:xlink="http://www.w3.org/1999/xlink" x="0px" y="0px"
	 viewBox="0 0 595.28 558.86" style="enable-background:new 0 0 595.28 558.86;" xml:space="preserve">
<style type="text/css">
	.st0{fill:#DD963C;}
</style>
<g>
	<g>
		<g>
			<path class="st0" d="M29.45,255.08c5.32,1.61,10.73,2.98,15.95,4.87c14.2,5.12,26.32,13.41,36.81,24.28
				c15.12,15.67,32.29,15.8,47.42,0.14c22.08-22.83,48.92-32.99,80.38-30.17c22.11,1.98,41.2,11.25,57.21,26.72
				c3.39,3.27,6.54,6.9,10.35,9.6c11.38,8.07,26.43,7.1,36.61-2.6c9.51-9.06,19.02-17.86,30.87-23.98
				c36.27-18.73,83.28-11.23,111.6,18.18c5.86,6.08,11.65,12.17,20.43,13.83c11.88,2.25,21.62-1.68,29.61-10.47
				c8.93-9.83,19.33-17.78,31.65-22.71c8.66-3.47,17.78-5.8,27.29-8.83c0.23,2.62,0.44,3.94,0.44,5.26
				c0.02,16.07-0.06,32.14,0.08,48.21c0.03,3.02-1.05,4.3-3.66,5.89c-5.6,3.39-11.32,7.03-15.84,11.68
				c-18.88,19.43-41.57,29.03-68.64,27.5c-21.81-1.24-40.55-9.81-55.76-25.54c-7.79-8.06-15.94-15.21-27.58-16.74
				c-12.05-1.59-23.02,1.14-32.07,9.35c-9.44,8.56-18.33,17.6-29.96,23.47c-32.12,16.21-73.04,9.92-98.29-15.71
				c-8.36-8.48-17-15.98-29.58-17.19c-11.77-1.13-22.26,1.73-30.9,9.76c-9.22,8.56-18.12,17.32-29.57,23.11
				c-32.1,16.23-72.81,9.81-98.42-15.54c-5.04-4.99-10.92-9.14-16.42-13.67C29.45,294.21,29.45,274.65,29.45,255.08z"/>
			<path class="st0" d="M127.54,260.85c1.54-17.68,8.1-32.01,20.67-42.64c7.17-6.06,15.72-11.23,24.51-14.49
				c36.29-13.44,72.89-26.01,109.4-38.84c3.92-1.38,7.99-2.36,12.24-3.61c-2.12-9.67-4.93-19.21-6.21-28.96
				c-4.06-30.86,4.23-58.09,25.8-80.81c19.67-20.72,44.93-30.65,72.23-36.31c5.11-1.06,10.32-2.03,15.5-2.19
				c14.1-0.45,26.01,9.92,28,23.88c1.97,13.78-6.87,27.07-20.36,30.76c-12.08,3.3-24.45,5.85-36.11,10.27
				c-14.07,5.33-24.83,14.83-28.74,30.27c-1.78,7.04-1.95,13.97,0.26,21.12c8.13,26.32,16.32,52.63,23.59,79.18
				c2.15,7.85,1.5,16.51,1.71,24.81c0.03,1.29-2.09,3.53-3.52,3.83c-24.71,5.11-45.62,16.82-62.89,35.21
				c-6.07,6.46-12.58,6.32-18.96-0.36c-18.98-19.89-41.86-32.23-69.21-35.87c-30.3-4.04-57.78,3.28-82.61,20.93
				C131.44,258.02,130.05,259.03,127.54,260.85z"/>
			<path class="st0" d="M515.28,163.37c-0.93,38.74-32.25,69.32-70.14,68.48c-38.51-0.84-69.11-32.53-68.03-70.47
				c1.11-39.06,32.19-68.7,71.06-67.78C485.63,94.5,516.18,126.25,515.28,163.37z"/>
		</g>
		<g>
			<g>
				<path class="st0" d="M29.6,484.1l-2.07,9.82c-1.38,6.89-0.52,8.61,2.07,8.61c2.41,0,3.62-2.24,4.82-8.44
					c1.72-8.61-0.52-13.95-8.1-22.91c-9.99-11.89-17.23-19.98-12.92-40.31c3.96-18.6,12.75-26.36,30.66-26.36
					c27.73,0,28.59,17.92,24.81,34.8l-0.69,3.1H44.25l1.9-8.27c1.38-6.2,1.03-9.13-2.24-9.13c-1.55,0-3.45,0.69-4.48,5.51
					c-1.89,8.96-0.34,10.85,7.06,19.98c14.13,17.4,18.6,24.8,14.47,44.79c-4.13,20.15-14.3,27.39-33.59,27.39
					c-23.08,0-29.8-12.4-24.81-34.11l1.03-4.48H29.6z"/>
				<path class="st0" d="M105.91,428.12c-2.24,13.44-7.23,54.09-7.92,58.22h1.21c3.44-12.57,11.89-43.58,15.68-58.22h25.32
					c-2.58,18.95-5,39.96-7.75,58.4h1.38c2.58-8.96,11.71-45.99,14.81-58.4h28.25l-34.8,92.85H112.8
					c1.55-15.16,3.62-34.28,4.65-44.61h-1.21c-3.45,10.33-10.68,30.83-15.5,44.61H72.15l5.17-92.85H105.91z"/>
				<path class="st0" d="M182.74,428.12h26.7l-19.64,92.85h-26.7L182.74,428.12z M188.42,401.07h26.7l-4.48,21.36h-26.7
					L188.42,401.07z"/>
				<path class="st0" d="M212.88,458.95c4.82-22.57,5.51-27.04,6.2-30.83h25.15c-0.17,2.41-0.52,4.82-0.86,6.72
					c5-5.51,10.68-8.1,17.4-8.1c9.82,0,12.23,5,13.44,8.44c4.82-4.82,10.51-8.44,19.12-8.44c14.3,0,16.54,12.06,13.95,24.46
					l-14.64,69.76h-26.01l13.95-66.15c0.69-3.62,0.34-6.2-2.41-6.2c-2.58,0-4.31,1.72-5.34,6.55l-13.78,65.8h-26.01l13.95-66.49
					c1.03-4.65-0.17-5.86-2.41-5.86c-2.41,0-4.13,1.89-5,6.37l-13.78,65.97h-26.01L212.88,458.95z"/>
				<path class="st0" d="M315.2,458.95c4.82-22.57,5.51-27.04,6.2-30.83h25.15c-0.17,2.41-0.52,4.82-0.86,6.72
					c5-5.51,10.68-8.1,17.4-8.1c9.82,0,12.23,5,13.44,8.44c4.82-4.82,10.51-8.44,19.12-8.44c14.3,0,16.54,12.06,13.95,24.46
					l-14.64,69.76h-26.01l13.95-66.15c0.69-3.62,0.34-6.2-2.41-6.2c-2.58,0-4.31,1.72-5.34,6.55l-13.78,65.8h-26.01l13.95-66.49
					c1.03-4.65-0.17-5.86-2.41-5.86c-2.41,0-4.13,1.89-5,6.37l-13.78,65.97h-26.01L315.2,458.95z"/>
				<path class="st0" d="M424.06,428.12h26.7l-19.64,92.85h-26.7L424.06,428.12z M429.75,401.07h26.7l-4.48,21.36h-26.7
					L429.75,401.07z"/>
				<path class="st0" d="M455.24,454.3c2.58-12.4,4.82-23.94,5.17-26.18h26.01c-0.17,1.55-0.69,5.51-1.03,7.24
					c3.27-3.79,8.44-8.61,17.92-8.61c13.78,0,17.4,9.47,14.47,22.91l-14.99,71.31h-26.87l13.78-65.63c0.69-2.93,1.03-6.72-2.24-6.72
					c-3.1,0-4.82,2.24-6.03,7.75l-13.61,64.6h-26.7L455.24,454.3z"/>
				<path class="st0" d="M574.96,513.73c-4.82,23.08-7.75,37.04-36.52,37.04c-27.22,0-29.63-13.26-27.04-25.84l0.17-0.86h26.7
					l-0.17,1.03c-0.52,3.45-0.17,6.03,2.58,6.03c3.1,0,4.13-1.03,5.68-7.75l3.1-13.95c-4.48,6.2-10.51,8.61-16.88,8.61
					c-15.85,0-17.4-13.09-13.95-29.11l7.58-35.66c3.1-14.3,9.3-26.53,23.77-26.53c7.58,0,13.09,2.93,14.99,9.3
					c0.69-2.76,2.41-6.89,2.93-7.92h25.49c-2.07,8.44-3.79,17.05-6.72,30.66L574.96,513.73z M552.39,455.33l-7.06,33.76
					c-1.03,5,0.34,6.72,2.93,6.72s4.31-1.89,5.34-6.89l7.06-33.93c0.52-2.76,0.52-6.37-2.76-6.37
					C554.97,448.61,553.42,450.51,552.39,455.33z"/>
			</g>
		</g>
	</g>
</g>
</svg>
