<?xml version="1.0" encoding="utf-8"?>
<!-- Generator: Adobe Illustrator 24.1.1, SVG Export Plug-In . SVG Version: 6.00 Build 0)  -->
<svg version="1.1" id="Layer_1" xmlns="http://www.w3.org/2000/svg" xmlns:xlink="http://www.w3.org/1999/xlink" x="0px" y="0px"
	 viewBox="0 0 595.28 558.86" style="enable-background:new 0 0 595.28 558.86;" xml:space="preserve">
<style type="text/css">
	.st0{fill:#DD963C;}
</style>
<g>
	<path class="st0" d="M336.64,153.14c-2.24,3.2-4.12,5.88-5.98,8.56c-13.89,19.96-27.79,39.92-41.66,59.9
		c-2.49,3.59-5.66,6.01-10.07,6.79c-0.72,0.13-1.49,0.82-1.94,1.46c-13.62,19.54-27.21,39.1-40.8,58.66
		c-8.6,12.37-17.22,24.73-25.83,37.09c-0.24,0.35-0.52,0.67-0.89,1.14c-10.45-8.99-22.42-12.49-35.92-9.56
		c-13.48,2.92-22.71,11.2-28.5,23.77c-3.88-2.83-6.75-6.34-8.54-10.6c-4.01-9.56-3.3-18.89,2.61-27.41
		c15.01-21.63,30.2-43.14,45.43-64.63c7.33-10.34,21.29-12.77,31.83-5.66c8.11,5.47,16.11,11.09,24.16,16.64
		c0.7,0.48,1.42,0.93,2.29,1.5c1.26-1.8,2.45-3.48,3.63-5.17c5.54-7.95,11.1-15.88,16.56-23.87c0.5-0.74,0.74-2.03,0.47-2.85
		c-1.55-4.63-0.91-8.82,1.77-12.88c20.14-30.54,40.3-61.07,60.32-91.68c4.67-7.14,10.76-12.19,19.33-12.98
		c9.08-0.83,18.31-1.39,27.21,1.54c18.5,6.09,29.45,24.97,25.78,44.03c-4.62,24.04-9.12,48.1-13.66,72.15
		c-0.48,2.53-0.75,5.12-1.45,7.59c-0.74,2.6-0.14,4.81,0.9,7.19c15.02,34.4,29.97,68.82,44.93,103.24c2.91,6.7,5.87,13.38,8.73,20.1
		c3.58,8.43,0.35,17.31-7.62,21.16c-7.83,3.78-16.67,0.79-21.23-7.17c-24.04-41.99-48.03-84.01-72.17-125.95
		c-4.97-8.64-8.55-17.61-9.43-27.6c-0.59-6.8,0.4-13.43,1.64-20.05c2.65-14.14,5.31-28.28,7.96-42.42
		C336.59,154.72,336.57,154.25,336.64,153.14z"/>
	<path class="st0" d="M430.77,53.22c-0.19,22.25-18.18,39.89-40.5,39.72c-22.14-0.17-39.96-18.22-39.73-40.26
		c0.23-22.1,18.41-39.65,40.82-39.41C413.1,13.51,430.95,31.6,430.77,53.22z"/>
	<path class="st0" d="M322.8,242.75c2.98,5.18,5.68,9.89,8.39,14.6c5.15,8.94,10.27,17.9,15.49,26.81c0.71,1.21,0.72,2.12,0.14,3.35
		c-2.68,5.78-5.42,11.54-7.82,17.44c-2.16,5.31-5.35,9.91-8.79,14.43c-13.68,17.99-27.26,36.05-40.89,54.08
		c-7.1,9.39-20.71,8.34-25.55-2.01c-2.42-5.18-1.68-10.2,1.4-14.9c5.38-8.22,10.8-16.41,16.21-24.62
		c8.95-13.59,17.92-27.18,26.83-40.8c0.69-1.05,1.12-2.32,1.48-3.54c4.18-14.28,8.32-28.58,12.48-42.87
		C322.29,244.25,322.45,243.79,322.8,242.75z"/>
	<path class="st0" d="M404.79,154.33c1.91,5.28,3.86,10.12,5.38,15.09c1.17,3.86,3.32,6.69,6.44,9.26
		c13.82,11.35,27.48,22.88,41.16,34.4c5.67,4.78,6.74,11.99,2.76,17.69c-4.43,6.34-13.1,7.53-19.41,2.55
		c-5.47-4.31-10.84-8.75-16.25-13.13c-8.98-7.28-17.96-14.57-26.95-21.83c-0.95-0.77-1.51-1.43-1.23-2.85
		c2.61-13.26,5.13-26.54,7.67-39.81C404.41,155.37,404.55,155.07,404.79,154.33z"/>
	<path class="st0" d="M182.45,332.15c13.09,0.11,23.87,10.88,23.75,23.72c-0.13,13.55-10.91,24.25-24.31,24.12
		c-13.24-0.13-23.97-11.15-23.82-24.45C158.23,342.61,169.25,332.03,182.45,332.15z"/>
</g>
<g>
	<g>
		<path class="st0" d="M89.93,440.45H77.71l4.02-18.67h47.7l-4.02,18.67h-12.37l-16.99,80h-23.1L89.93,440.45z"/>
		<path class="st0" d="M125.55,467.86c2.98-14.22,4.77-23.11,5.51-27.26h22.36c-0.3,2.52-0.89,6.96-1.64,10.37
			c4.02-8.44,10.73-11.41,17.89-11.56l-5.81,27.26c-14.16-0.89-16.25,6.22-18.04,14.67l-8.35,39.11h-23.1L125.55,467.86z"/>
		<path class="st0" d="M214.83,498.82c-1.04,4.44-3.73,18.67-4.17,21.63h-22.51c0.15-1.78,0.45-3.7,0.75-5.78
			c-4.62,5.48-9.39,7.11-14.9,7.11c-10.88,0-15.65-9.04-11.92-26.52c3.73-17.18,12.07-23.41,32.34-25.33
			c1.19-0.15,2.83-0.3,3.58-0.3l1.64-7.85c1.04-5.04,0.3-6.37-2.09-6.37c-2.24,0-3.43,1.19-4.47,5.78l-0.89,3.85h-21.46l0.6-2.81
			c3.73-17.48,11.77-22.82,27.87-22.82c16.54,0,27.28,5.19,22.95,25.33L214.83,498.82z M194.71,484.89c-0.45,0-1.19,0.15-1.79,0.3
			c-4.32,0.89-6.26,2.67-7.75,10.22c-1.04,5.48,0,7.56,2.38,7.56c2.83,0,3.88-2.37,4.47-4.89L194.71,484.89z"/>
		<path class="st0" d="M255.67,440.6c-2.38,15.85-6.71,45.78-8.2,55.85h0.89c3.43-12.3,10.28-36.3,16.1-55.85h23.85l-29.36,79.85
			h-31.9l4.32-79.85H255.67z"/>
		<path class="st0" d="M306.5,485.93l-2.53,13.04c-0.89,4.3,0.45,5.63,2.24,5.63c2.68,0,3.73-1.48,4.77-6.07l1.19-5.48h22.36
			l-0.6,3.7c-3.13,15.56-9.99,25.04-29.81,25.04c-21.61,0-25.79-11.85-21.91-30.22l5.37-25.33c3.73-17.19,11.33-26.82,30.4-26.82
			c21.61,0,25.64,11.26,21.91,29.04l-3.73,17.48H306.5z M316.63,471.26l1.34-6.37c1.34-6.07,1.64-8.89-1.64-8.89
			c-2.98,0-3.73,1.78-5.22,9.33l-1.19,5.93H316.63z"/>
		<path class="st0" d="M336.01,520.45l21.91-103.11h23.1l-21.91,103.11H336.01z"/>
		<path class="st0" d="M384.45,440.6h23.1l-16.99,79.85h-23.1L384.45,440.6z M389.37,417.34h23.1l-3.88,18.37h-23.1L389.37,417.34z"
			/>
		<path class="st0" d="M411.42,463.12c2.24-10.67,4.17-20.59,4.47-22.52h22.51c-0.15,1.33-0.6,4.74-0.89,6.22
			c2.83-3.26,7.3-7.41,15.5-7.41c11.92,0,15.05,8.15,12.52,19.7l-12.97,61.33h-23.25L441.23,464c0.6-2.52,0.89-5.78-1.94-5.78
			c-2.68,0-4.17,1.93-5.22,6.67l-11.77,55.56h-23.1L411.42,463.12z"/>
		<path class="st0" d="M515.01,514.23c-4.17,19.85-6.71,31.85-31.6,31.85c-23.55,0-25.64-11.41-23.4-22.22l0.15-0.74h23.1
			l-0.15,0.89c-0.45,2.96-0.15,5.18,2.24,5.18c2.68,0,3.58-0.89,4.92-6.67l2.68-12c-3.88,5.33-9.09,7.41-14.61,7.41
			c-13.71,0-15.05-11.26-12.07-25.04l6.56-30.67c2.68-12.3,8.05-22.82,20.57-22.82c6.56,0,11.33,2.52,12.97,8
			c0.6-2.37,2.09-5.93,2.53-6.81h22.06c-1.79,7.26-3.28,14.67-5.81,26.37L515.01,514.23z M495.49,464l-6.11,29.04
			c-0.89,4.3,0.3,5.78,2.53,5.78c2.24,0,3.73-1.63,4.62-5.93l6.11-29.18c0.45-2.37,0.45-5.48-2.38-5.48
			C497.72,458.23,496.38,459.86,495.49,464z"/>
	</g>
</g>
</svg>
