<?xml version="1.0" encoding="utf-8"?>
<!-- Generator: Adobe Illustrator 24.1.1, SVG Export Plug-In . SVG Version: 6.00 Build 0)  -->
<svg version="1.1" id="Layer_1" xmlns="http://www.w3.org/2000/svg" xmlns:xlink="http://www.w3.org/1999/xlink" x="0px" y="0px"
	 viewBox="0 0 595.28 558.86" style="enable-background:new 0 0 595.28 558.86;" xml:space="preserve">
<g>
	<path d="M219.55,423.54c-4.69,4.87-7.63,11.48-7.97,18.73l119.6,5.34h44.44v-3.99c0-1.81-0.19-3.55-0.5-5.3
		c-2.49-13.41-14.22-23.51-28.31-23.51h-7.11c-2.56-1-5.05-2.18-7.36-3.62c-9.42-5.61-16.65-14.4-20.33-25
		c-3.68-10.6-3.37-22.07,0.69-32.3c0.94-2.49,2.12-4.93,3.49-7.23h-9.34l-33.66,4.68c3.37,7.36,4.89,15.37,4.28,23.38v0.06
		c-0.31,3.8-1.12,7.67-2.43,11.41c-2.81,8.29-7.92,15.53-14.53,20.89c-1.68,1.44-3.52,2.67-5.41,3.83l57.12,3.91h-71.98
		C232.14,414.81,224.85,418.18,219.55,423.54z M327.93,420.5c15.83,0,28.66,0.73,28.66,1.64c0,0.91-12.83,1.64-28.66,1.64
		c-15.83,0-28.66-0.74-28.66-1.64C299.28,421.24,312.11,420.5,327.93,420.5z"/>
	<path d="M270.86,331.51h45.33c-12.85-11.22-16.84-29.12-10.85-44.46c1-2.61,2.3-5.11,3.86-7.47c3.3,0,5.97-2.68,5.97-5.97v-4.63
		h-8.47l-34.81,2.99v1.64c0,3.29,2.66,5.96,5.95,5.97v-0.01h23.04l-21.03,3.55c2.77,5.3,4.33,11.02,4.54,16.71
		C284.89,311.55,280.22,323.34,270.86,331.51z"/>
	<path d="M263.28,339.08c0,4.16,3.4,7.56,7.56,7.56h45.37c4.16,0,7.56-3.4,7.56-7.56c0-4.16-3.4-7.56-7.56-7.56h-45.37
		C266.69,331.52,263.28,334.92,263.28,339.08z M314.8,333.94c3.13,0,5.67,1.4,5.67,3.13c0,1.73-2.54,3.13-5.67,3.13
		c-3.13,0-5.67-1.4-5.67-3.13C309.13,335.34,311.67,333.94,314.8,333.94z"/>
	<path d="M469.4,7.64c-7.23-4.3-15.78-5.99-23.82-5.61c-1.25,0.06-2.43,0.19-3.68,0.37c-6.67,0.94-13.41,3.37-19.45,7.92
		c-3.55,2.81-6.67,6.42-8.92,10.66c-2.12,4.3-3.37,9.04-3.49,13.59c-0.31,9.17,2.56,16.77,5.74,23.44c0.06,0.19,0.19,0.37,0.25,0.56
		c3.06,5.55,9.98,7.61,15.59,4.61c2.12-1.18,3.74-2.93,4.74-4.93c1.68-3.24,1.75-7.23-0.12-10.66l-0.12-0.19
		c-2.37-4.36-3.99-8.92-3.93-12.28c0-3.49,1-5.8,3.55-8.23c2.74-2.31,6.98-4.05,11.54-4.49c3.06-0.19,5.92,0,8.67,0.81
		c1.25,0.31,2.43,0.75,3.55,1.37c7.3,3.99,12.03,13.16,12.16,23.32c0.12,10.23-3.62,20.95-9.6,30.55
		c-6.11,9.66-13.9,18.02-23.26,26.38c-9.04,8.29-18.58,16.27-28,24.69c-4.99,4.55-10.1,9.23-14.9,14.34
		c-4.05,4.43-7.98,9.23-11.41,14.59c-3.49,5.92-6.11,12.72-6.73,20.02c-0.56,7.3,1.5,14.28,4.05,20.64
		c0.94,2.37,3.62,3.62,6.05,2.74c2.56-0.87,3.87-3.62,2.99-6.17l-0.12-0.44c-1.81-5.3-3.12-10.66-2.43-15.84
		c0.69-5.18,2.81-10.16,5.86-14.9c6.48-9.23,15.65-17.27,25.13-25.07c9.54-7.79,19.52-15.46,29.18-23.57
		c9.66-7.86,19.64-17.4,27.25-28.5c7.67-11.16,13.41-24.57,13.97-39.41c-0.12-7.36-0.87-15.09-4.49-22.26
		C481.87,18.62,476.57,12.01,469.4,7.64z M393.15,161.85c0,0-4.48,6.72-0.9,0.15c3.58-6.57,8.21-13.58,17.46-21.04
		C418.97,133.5,412.71,142.75,393.15,161.85z"/>
	<path d="M192.92,164.52c3.06,4.74,5.18,9.73,5.86,14.9c0.69,5.18-0.62,10.54-2.43,15.84l-0.19,0.44c-0.81,2.56,0.5,5.3,3.06,6.17
		c2.43,0.87,5.11-0.37,6.05-2.74c2.56-6.36,4.61-13.34,4.05-20.64c-0.62-7.3-3.3-14.09-6.8-20.02c-3.18-4.99-6.73-9.48-10.54-13.66
		c-0.06,0-0.12-0.06-0.19-0.19c-4.93-5.42-10.29-10.35-15.53-15.09c-9.42-8.42-18.96-16.4-28-24.69
		c-9.35-8.36-17.15-16.71-23.26-26.38c-6.05-9.6-9.73-20.33-9.6-30.55c0.12-10.16,4.86-19.33,12.16-23.32
		c3.74-1.93,7.86-2.49,12.22-2.18c4.55,0.44,8.79,2.18,11.47,4.49c2.62,2.43,3.62,4.74,3.62,8.23c0.06,3.37-1.56,7.92-3.93,12.28
		l-0.12,0.19c-3.06,5.61-0.94,12.53,4.61,15.59c5.55,2.99,12.53,0.94,15.59-4.61c0.06-0.19,0.19-0.37,0.25-0.56
		c3.18-6.67,6.05-14.28,5.74-23.44c-0.19-4.55-1.37-9.29-3.49-13.59c-0.06-0.06-0.06-0.12-0.12-0.19c-2.24-4.18-5.3-7.73-8.79-10.48
		c-7.17-5.42-15.28-7.79-23.13-8.29c-8.11-0.37-16.59,1.31-23.82,5.61c-7.17,4.36-12.47,10.97-15.78,18.08
		c-3.62,7.17-4.36,14.9-4.49,22.26c0.56,14.84,6.3,28.25,13.9,39.41c7.67,11.1,17.65,20.64,27.31,28.5
		c9.66,8.11,19.64,15.78,29.18,23.57C177.27,147.25,186.44,155.3,192.92,164.52z M186.54,149.96c5.37,5.67,12.54,14.48,14.63,19.7
		c2.09,5.22-0.75,11.19-1.34,4.18c-0.6-7.01-5.34-14.18-20.3-27.61C176.02,143.08,181.17,144.29,186.54,149.96z"/>
	<path d="M183.74,47.54h21.07l-13-13.54l15.41,13.54l14.06,12.35h89.14l-89.21,5.81v107.71h-5.27c-3.62,0-6.57,2.94-6.57,6.57v7.36
		c0,3.62,2.94,6.57,6.57,6.57h5.65c1.86,20.79,12.55,36.84,22.94,47.68c10.54,11.1,20.58,16.77,20.58,16.77h0.06v4.68
		c0,0.44,0.06,0.81,0.12,1.18c0.56,2.68,2.99,4.74,5.8,4.74h44.83c3.12,0,5.74-2.49,5.86-5.55c0.06-0.12,0.06-0.25,0.06-0.37v-4.68
		h0.06c0,0,10.1-5.67,20.64-16.77c2.37-2.49,4.74-5.24,7.05-8.23c7.8-10.18,14.49-23.41,15.91-39.45h5.57
		c3.62,0,6.57-2.94,6.57-6.57v-7.36c0-3.63-2.94-6.57-6.57-6.57h-5.27V59.89h-0.06l8.79-7.73l5.26-4.62l17.68-15.52l-14.97,15.52
		h20.79c3.63,0,6.57-2.94,6.57-6.57v-7.36c0-3.62-2.94-6.57-6.57-6.57h-0.15l0.02-0.01h-219.3l0.02,0.01h-0.15
		c-3.62,0-6.57,2.94-6.57,6.57v7.36C177.18,44.61,180.12,47.54,183.74,47.54z M341.22,213.2c-2.99,8.51-16.12,18.51-9.4,9.4
		c6.72-9.1,7.76-22.24,9.4-34.18C342.86,176.48,353.82,177.26,341.22,213.2z M323.16,59.89h17.4l-7.28,109.77h-2.43L323.16,59.89z
		 M348.32,169.66h-0.62l-1.95-109.77h4.42L348.32,169.66z M346.84,31.76c20.44,0,37.01,0.62,37.01,1.39
		c0,0.77-16.57,1.39-37.01,1.39c-20.44,0-37.01-0.62-37.01-1.39C309.82,32.38,326.4,31.76,346.84,31.76z"/>
	<path d="M405.28,451.85c-0.14-2.37-2.11-4.22-4.48-4.22H186.25c-2.37,0-4.34,1.85-4.48,4.22l-5.75,94.88h235.02L405.28,451.85z
		 M364.42,521.71c-1.16,0.2-2.04,1.13-2.04,2.31v4.82c0,1.31-1.06,2.37-2.37,2.37H227.04c-1.31,0-2.37-1.06-2.37-2.37v-4.82
		c0-1.18-0.88-2.11-2.04-2.31c-10.44-1.83-18.46-10.9-18.46-21.84c0-10.94,8.02-20.01,18.46-21.84c1.16-0.2,2.04-1.13,2.04-2.31
		v-4.82c0-1.31,1.06-2.37,2.37-2.37h132.97c1.31,0,2.37,1.06,2.37,2.37v4.82c0,1.18,0.88,2.11,2.04,2.31
		c10.44,1.83,18.46,10.9,18.46,21.84C382.88,510.81,374.86,519.89,364.42,521.71z"/>
	<polygon points="411.03,546.74 411.03,546.74 176.02,546.74 176.02,546.74 163.61,546.74 156.62,556.88 430.44,556.88 
		423.44,546.74 	"/>
	<rect x="176.02" y="546.74" width="235.02" height="0"/>
	<path d="M232.39,477.72c0.25,0.25,0.62,0.37,1.06,0.37c1,0,1.81-0.81,1.81-1.81c0-0.44-0.12-0.81-0.37-1.06L232.39,477.72z"/>
	<path d="M233.45,474.42c-1.06,0-1.87,0.81-1.87,1.87c0,0.37,0.12,0.75,0.37,1.06l2.56-2.56
		C234.2,474.54,233.82,474.42,233.45,474.42z"/>
	<path d="M355.12,474.79c-0.31-0.25-0.69-0.37-1.06-0.37c-1.06,0-1.87,0.81-1.87,1.87c0,0.37,0.12,0.75,0.37,1.06L355.12,474.79z"/>
	<path d="M354.06,478.1c1,0,1.81-0.81,1.81-1.81c0-0.44-0.12-0.81-0.37-1.06l-2.49,2.49C353.25,477.97,353.62,478.1,354.06,478.1z"
		/>
	<path d="M232.39,526.07c0.25,0.25,0.62,0.37,1.06,0.37c1,0,1.81-0.81,1.81-1.81c0-0.44-0.12-0.81-0.37-1.06L232.39,526.07z"/>
	<path d="M233.45,522.77c-1.06,0-1.87,0.81-1.87,1.87c0,0.37,0.12,0.75,0.37,1.06l2.56-2.56
		C234.2,522.89,233.82,522.77,233.45,522.77z"/>
	<path d="M354.06,522.77c-1.06,0-1.87,0.81-1.87,1.87c0,0.37,0.12,0.75,0.37,1.06l2.56-2.56
		C354.81,522.89,354.43,522.77,354.06,522.77z"/>
	<path d="M353,526.07c0.25,0.25,0.62,0.37,1.06,0.37c1,0,1.81-0.81,1.81-1.81c0-0.44-0.12-0.81-0.37-1.06L353,526.07z"/>
	<path d="M339.14,528.67h8.36l26-43.59c-1.81-1.56-3.93-2.81-6.24-3.68L339.14,528.67z"/>
	<polygon points="280.46,528.67 288.76,528.67 323.05,471.05 314.76,471.05 	"/>
	<polygon points="243.44,528.67 245.8,528.67 280.09,471.05 277.73,471.05 	"/>
</g>
</svg>
